<svg width="724" height="177" viewBox="0 0 724 177" fill="none" xmlns="http://www.w3.org/2000/svg">
<g filter="url(#filter0_d_6_2)">
<path d="M8.50085 164.5L93.5009 4.5L178.501 164.5" stroke="url(#paint0_linear_6_2)" stroke-width="9" stroke-linecap="round" stroke-linejoin="round" shape-rendering="crispEdges"/>
</g>
<path d="M247.989 123.5L269.813 61.9H276.941L298.765 123.5H290.933L285.653 108.452H261.189L255.997 123.5H247.989ZM263.477 101.676H283.277L275.357 78.884C275.152 78.2973 274.917 77.6227 274.653 76.86C274.418 76.068 274.184 75.3053 273.949 74.572C273.714 73.8093 273.538 73.164 273.421 72.636C273.274 73.164 273.084 73.8093 272.849 74.572C272.644 75.3053 272.409 76.068 272.145 76.86C271.91 77.6227 271.69 78.2973 271.485 78.884L263.477 101.676ZM361.578 124.556C356.914 124.556 352.954 123.647 349.698 121.828C346.442 120.009 343.817 117.575 341.822 114.524C339.828 111.444 338.361 108.012 337.422 104.228C336.513 100.444 336.058 96.6013 336.058 92.7C336.058 88.828 336.528 85.0147 337.466 81.26C338.434 77.476 339.93 74.044 341.954 70.964C343.978 67.884 346.604 65.4347 349.83 63.616C353.086 61.768 357.002 60.844 361.578 60.844C365.362 60.844 368.56 61.3867 371.17 62.472C373.81 63.5573 375.952 64.9507 377.594 66.652C379.266 68.324 380.557 70.084 381.466 71.932L374.602 75.452C373.634 74.0147 372.578 72.7387 371.434 71.624C370.29 70.48 368.926 69.5853 367.342 68.94C365.758 68.2947 363.837 67.972 361.578 67.972C358.293 67.972 355.521 68.72 353.262 70.216C351.004 71.712 349.185 73.6773 347.806 76.112C346.457 78.5467 345.474 81.216 344.858 84.12C344.272 87.024 343.978 89.884 343.978 92.7C343.978 95.7507 344.316 98.7427 344.99 101.676C345.665 104.609 346.721 107.264 348.158 109.64C349.596 111.987 351.414 113.864 353.614 115.272C355.844 116.651 358.498 117.34 361.578 117.34C364.981 117.34 367.709 116.621 369.762 115.184C371.816 113.717 373.546 111.825 374.954 109.508L381.994 112.148C380.938 114.436 379.501 116.519 377.682 118.396C375.864 120.273 373.62 121.769 370.95 122.884C368.31 123.999 365.186 124.556 361.578 124.556ZM448.495 124.556C443.831 124.556 439.871 123.647 436.615 121.828C433.359 120.009 430.734 117.575 428.739 114.524C426.745 111.444 425.278 108.012 424.339 104.228C423.43 100.444 422.975 96.6013 422.975 92.7C422.975 88.828 423.445 85.0147 424.383 81.26C425.351 77.476 426.847 74.044 428.871 70.964C430.895 67.884 433.521 65.4347 436.747 63.616C440.003 61.768 443.919 60.844 448.495 60.844C452.279 60.844 455.477 61.3867 458.087 62.472C460.727 63.5573 462.869 64.9507 464.511 66.652C466.183 68.324 467.474 70.084 468.383 71.932L461.519 75.452C460.551 74.0147 459.495 72.7387 458.351 71.624C457.207 70.48 455.843 69.5853 454.259 68.94C452.675 68.2947 450.754 67.972 448.495 67.972C445.21 67.972 442.438 68.72 440.179 70.216C437.921 71.712 436.102 73.6773 434.723 76.112C433.374 78.5467 432.391 81.216 431.775 84.12C431.189 87.024 430.895 89.884 430.895 92.7C430.895 95.7507 431.233 98.7427 431.907 101.676C432.582 104.609 433.638 107.264 435.075 109.64C436.513 111.987 438.331 113.864 440.531 115.272C442.761 116.651 445.415 117.34 448.495 117.34C451.898 117.34 454.626 116.621 456.679 115.184C458.733 113.717 460.463 111.825 461.871 109.508L468.911 112.148C467.855 114.436 466.418 116.519 464.599 118.396C462.781 120.273 460.537 121.769 457.867 122.884C455.227 123.999 452.103 124.556 448.495 124.556ZM512.619 123.5V61.9H549.227V69.116H520.275V88.036H539.371V95.252H520.275V116.196H551.163V123.5H512.619ZM613.191 124.556C609.612 124.556 606.371 123.969 603.467 122.796C600.563 121.593 598.099 119.965 596.075 117.912C594.08 115.829 592.628 113.468 591.719 110.828L598.935 108.188C600.167 110.916 602.03 113.131 604.523 114.832C607.046 116.504 609.994 117.34 613.367 117.34C617.063 117.34 620.011 116.46 622.211 114.7C624.411 112.911 625.511 110.329 625.511 106.956C625.511 104.58 624.851 102.585 623.531 100.972C622.211 99.3587 620.495 98.0093 618.383 96.924C616.271 95.8093 614.012 94.812 611.607 93.932C609.466 93.14 607.324 92.26 605.183 91.292C603.042 90.324 601.091 89.18 599.331 87.86C597.6 86.5107 596.207 84.8827 595.151 82.976C594.095 81.04 593.567 78.7373 593.567 76.068C593.567 73.3107 594.315 70.788 595.811 68.5C597.307 66.1827 599.463 64.3347 602.279 62.956C605.095 61.548 608.498 60.844 612.487 60.844C615.743 60.844 618.603 61.328 621.067 62.296C623.56 63.2347 625.599 64.54 627.183 66.212C628.796 67.8547 629.911 69.732 630.527 71.844L623.487 74.22C622.754 72.4893 621.404 71.0227 619.439 69.82C617.503 68.588 615.01 67.972 611.959 67.972C608.703 67.972 606.136 68.6907 604.259 70.128C602.411 71.5653 601.487 73.5453 601.487 76.068C601.487 77.9747 602.103 79.5733 603.335 80.864C604.596 82.1253 606.239 83.2253 608.263 84.164C610.287 85.1027 612.458 86.012 614.775 86.892C616.946 87.7133 619.116 88.652 621.287 89.708C623.487 90.7347 625.496 91.996 627.315 93.492C629.163 94.988 630.644 96.8213 631.759 98.992C632.874 101.133 633.431 103.729 633.431 106.78C633.431 110.564 632.551 113.776 630.791 116.416C629.031 119.056 626.626 121.08 623.575 122.488C620.524 123.867 617.063 124.556 613.191 124.556ZM696.671 124.556C693.092 124.556 689.851 123.969 686.947 122.796C684.043 121.593 681.579 119.965 679.555 117.912C677.56 115.829 676.108 113.468 675.199 110.828L682.415 108.188C683.647 110.916 685.509 113.131 688.003 114.832C690.525 116.504 693.473 117.34 696.847 117.34C700.543 117.34 703.491 116.46 705.691 114.7C707.891 112.911 708.991 110.329 708.991 106.956C708.991 104.58 708.331 102.585 707.011 100.972C705.691 99.3587 703.975 98.0093 701.863 96.924C699.751 95.8093 697.492 94.812 695.087 93.932C692.945 93.14 690.804 92.26 688.663 91.292C686.521 90.324 684.571 89.18 682.811 87.86C681.08 86.5107 679.687 84.8827 678.631 82.976C677.575 81.04 677.047 78.7373 677.047 76.068C677.047 73.3107 677.795 70.788 679.291 68.5C680.787 66.1827 682.943 64.3347 685.759 62.956C688.575 61.548 691.977 60.844 695.967 60.844C699.223 60.844 702.083 61.328 704.547 62.296C707.04 63.2347 709.079 64.54 710.663 66.212C712.276 67.8547 713.391 69.732 714.007 71.844L706.967 74.22C706.233 72.4893 704.884 71.0227 702.919 69.82C700.983 68.588 698.489 67.972 695.439 67.972C692.183 67.972 689.616 68.6907 687.739 70.128C685.891 71.5653 684.967 73.5453 684.967 76.068C684.967 77.9747 685.583 79.5733 686.815 80.864C688.076 82.1253 689.719 83.2253 691.743 84.164C693.767 85.1027 695.937 86.012 698.255 86.892C700.425 87.7133 702.596 88.652 704.767 89.708C706.967 90.7347 708.976 91.996 710.795 93.492C712.643 94.988 714.124 96.8213 715.239 98.992C716.353 101.133 716.911 103.729 716.911 106.78C716.911 110.564 716.031 113.776 714.271 116.416C712.511 119.056 710.105 121.08 707.055 122.488C704.004 123.867 700.543 124.556 696.671 124.556Z" fill="#0A0A0A"/>
<defs>
<filter id="filter0_d_6_2" x="0" y="0" width="187.002" height="177.001" filterUnits="userSpaceOnUse" color-interpolation-filters="sRGB">
<feFlood flood-opacity="0" result="BackgroundImageFix"/>
<feColorMatrix in="SourceAlpha" type="matrix" values="0 0 0 0 0 0 0 0 0 0 0 0 0 0 0 0 0 0 127 0" result="hardAlpha"/>
<feOffset dy="4"/>
<feGaussianBlur stdDeviation="2"/>
<feComposite in2="hardAlpha" operator="out"/>
<feColorMatrix type="matrix" values="0 0 0 0 0 0 0 0 0 0 0 0 0 0 0 0 0 0 0.25 0"/>
<feBlend mode="normal" in2="BackgroundImageFix" result="effect1_dropShadow_6_2"/>
<feBlend mode="normal" in="SourceGraphic" in2="effect1_dropShadow_6_2" result="shape"/>
</filter>
<linearGradient id="paint0_linear_6_2" x1="8.50085" y1="84.5" x2="178.501" y2="84.5" gradientUnits="userSpaceOnUse">
<stop stop-color="#7B00FF"/>
<stop offset="0.5" stop-color="#C649F0"/>
<stop offset="1" stop-color="#E365FF"/>
</linearGradient>
</defs>
</svg>
