<svg width="717" height="164" viewBox="0 0 717 164" fill="none" xmlns="http://www.w3.org/2000/svg">
<path d="M2.00043 162L87.0004 2L172 162" stroke="url(#paint0_linear_3_2)" stroke-width="4" stroke-linecap="round" stroke-linejoin="round"/>
<path d="M241.488 121L263.312 59.4H270.44L292.264 121H284.432L279.152 105.952H254.688L249.496 121H241.488ZM256.976 99.176H276.776L268.856 76.384C268.651 75.7973 268.416 75.1227 268.152 74.36C267.918 73.568 267.683 72.8053 267.448 72.072C267.214 71.3093 267.038 70.664 266.92 70.136C266.774 70.664 266.583 71.3093 266.348 72.072C266.143 72.8053 265.908 73.568 265.644 74.36C265.41 75.1227 265.19 75.7973 264.984 76.384L256.976 99.176ZM355.078 122.056C350.414 122.056 346.454 121.147 343.198 119.328C339.942 117.509 337.317 115.075 335.322 112.024C333.327 108.944 331.861 105.512 330.922 101.728C330.013 97.944 329.558 94.1013 329.558 90.2C329.558 86.328 330.027 82.5147 330.966 78.76C331.934 74.976 333.43 71.544 335.454 68.464C337.478 65.384 340.103 62.9347 343.33 61.116C346.586 59.268 350.502 58.344 355.078 58.344C358.862 58.344 362.059 58.8867 364.67 59.972C367.31 61.0573 369.451 62.4507 371.094 64.152C372.766 65.824 374.057 67.584 374.966 69.432L368.102 72.952C367.134 71.5147 366.078 70.2387 364.934 69.124C363.79 67.98 362.426 67.0853 360.842 66.44C359.258 65.7947 357.337 65.472 355.078 65.472C351.793 65.472 349.021 66.22 346.762 67.716C344.503 69.212 342.685 71.1773 341.306 73.612C339.957 76.0467 338.974 78.716 338.358 81.62C337.771 84.524 337.478 87.384 337.478 90.2C337.478 93.2507 337.815 96.2427 338.49 99.176C339.165 102.109 340.221 104.764 341.658 107.14C343.095 109.487 344.914 111.364 347.114 112.772C349.343 114.151 351.998 114.84 355.078 114.84C358.481 114.84 361.209 114.121 363.262 112.684C365.315 111.217 367.046 109.325 368.454 107.008L375.494 109.648C374.438 111.936 373.001 114.019 371.182 115.896C369.363 117.773 367.119 119.269 364.45 120.384C361.81 121.499 358.686 122.056 355.078 122.056ZM441.995 122.056C437.331 122.056 433.371 121.147 430.115 119.328C426.859 117.509 424.234 115.075 422.239 112.024C420.244 108.944 418.778 105.512 417.839 101.728C416.93 97.944 416.475 94.1013 416.475 90.2C416.475 86.328 416.944 82.5147 417.883 78.76C418.851 74.976 420.347 71.544 422.371 68.464C424.395 65.384 427.02 62.9347 430.247 61.116C433.503 59.268 437.419 58.344 441.995 58.344C445.779 58.344 448.976 58.8867 451.587 59.972C454.227 61.0573 456.368 62.4507 458.011 64.152C459.683 65.824 460.974 67.584 461.883 69.432L455.019 72.952C454.051 71.5147 452.995 70.2387 451.851 69.124C450.707 67.98 449.343 67.0853 447.759 66.44C446.175 65.7947 444.254 65.472 441.995 65.472C438.71 65.472 435.938 66.22 433.679 67.716C431.42 69.212 429.602 71.1773 428.223 73.612C426.874 76.0467 425.891 78.716 425.275 81.62C424.688 84.524 424.395 87.384 424.395 90.2C424.395 93.2507 424.732 96.2427 425.407 99.176C426.082 102.109 427.138 104.764 428.575 107.14C430.012 109.487 431.831 111.364 434.031 112.772C436.26 114.151 438.915 114.84 441.995 114.84C445.398 114.84 448.126 114.121 450.179 112.684C452.232 111.217 453.963 109.325 455.371 107.008L462.411 109.648C461.355 111.936 459.918 114.019 458.099 115.896C456.28 117.773 454.036 119.269 451.367 120.384C448.727 121.499 445.603 122.056 441.995 122.056ZM506.118 121V59.4H542.726V66.616H513.774V85.536H532.87V92.752H513.774V113.696H544.662V121H506.118ZM606.691 122.056C603.112 122.056 599.871 121.469 596.967 120.296C594.063 119.093 591.599 117.465 589.575 115.412C587.58 113.329 586.128 110.968 585.219 108.328L592.435 105.688C593.667 108.416 595.529 110.631 598.023 112.332C600.545 114.004 603.493 114.84 606.867 114.84C610.563 114.84 613.511 113.96 615.711 112.2C617.911 110.411 619.011 107.829 619.011 104.456C619.011 102.08 618.351 100.085 617.031 98.472C615.711 96.8587 613.995 95.5093 611.883 94.424C609.771 93.3093 607.512 92.312 605.107 91.432C602.965 90.64 600.824 89.76 598.683 88.792C596.541 87.824 594.591 86.68 592.831 85.36C591.1 84.0107 589.707 82.3827 588.651 80.476C587.595 78.54 587.067 76.2373 587.067 73.568C587.067 70.8107 587.815 68.288 589.311 66C590.807 63.6827 592.963 61.8347 595.779 60.456C598.595 59.048 601.997 58.344 605.987 58.344C609.243 58.344 612.103 58.828 614.567 59.796C617.06 60.7347 619.099 62.04 620.683 63.712C622.296 65.3547 623.411 67.232 624.027 69.344L616.987 71.72C616.253 69.9893 614.904 68.5227 612.939 67.32C611.003 66.088 608.509 65.472 605.459 65.472C602.203 65.472 599.636 66.1907 597.759 67.628C595.911 69.0653 594.987 71.0453 594.987 73.568C594.987 75.4747 595.603 77.0733 596.835 78.364C598.096 79.6253 599.739 80.7253 601.763 81.664C603.787 82.6027 605.957 83.512 608.275 84.392C610.445 85.2133 612.616 86.152 614.787 87.208C616.987 88.2347 618.996 89.496 620.815 90.992C622.663 92.488 624.144 94.3213 625.259 96.492C626.373 98.6333 626.931 101.229 626.931 104.28C626.931 108.064 626.051 111.276 624.291 113.916C622.531 116.556 620.125 118.58 617.075 119.988C614.024 121.367 610.563 122.056 606.691 122.056ZM690.17 122.056C686.592 122.056 683.35 121.469 680.446 120.296C677.542 119.093 675.078 117.465 673.054 115.412C671.06 113.329 669.608 110.968 668.698 108.328L675.914 105.688C677.146 108.416 679.009 110.631 681.502 112.332C684.025 114.004 686.973 114.84 690.346 114.84C694.042 114.84 696.99 113.96 699.19 112.2C701.39 110.411 702.49 107.829 702.49 104.456C702.49 102.08 701.83 100.085 700.51 98.472C699.19 96.8587 697.474 95.5093 695.362 94.424C693.25 93.3093 690.992 92.312 688.586 91.432C686.445 90.64 684.304 89.76 682.162 88.792C680.021 87.824 678.07 86.68 676.31 85.36C674.58 84.0107 673.186 82.3827 672.13 80.476C671.074 78.54 670.546 76.2373 670.546 73.568C670.546 70.8107 671.294 68.288 672.79 66C674.286 63.6827 676.442 61.8347 679.258 60.456C682.074 59.048 685.477 58.344 689.466 58.344C692.722 58.344 695.582 58.828 698.046 59.796C700.54 60.7347 702.578 62.04 704.162 63.712C705.776 65.3547 706.89 67.232 707.506 69.344L700.466 71.72C699.733 69.9893 698.384 68.5227 696.418 67.32C694.482 66.088 691.989 65.472 688.938 65.472C685.682 65.472 683.116 66.1907 681.238 67.628C679.39 69.0653 678.466 71.0453 678.466 73.568C678.466 75.4747 679.082 77.0733 680.314 78.364C681.576 79.6253 683.218 80.7253 685.242 81.664C687.266 82.6027 689.437 83.512 691.754 84.392C693.925 85.2133 696.096 86.152 698.266 87.208C700.466 88.2347 702.476 89.496 704.294 90.992C706.142 92.488 707.624 94.3213 708.738 96.492C709.853 98.6333 710.41 101.229 710.41 104.28C710.41 108.064 709.53 111.276 707.77 113.916C706.01 116.556 703.605 118.58 700.554 119.988C697.504 121.367 694.042 122.056 690.17 122.056Z" fill="#EDF0F7"/>
<defs>
<linearGradient id="paint0_linear_3_2" x1="2.00043" y1="82" x2="172" y2="82" gradientUnits="userSpaceOnUse">
<stop stop-color="#7B00FF"/>
<stop offset="0.5" stop-color="#C649F0"/>
<stop offset="1" stop-color="#E365FF"/>
</linearGradient>
</defs>
</svg>
